<svg id="Layer_1" data-name="Layer 1" xmlns="http://www.w3.org/2000/svg" xmlns:xlink="http://www.w3.org/1999/xlink" viewBox="0 0 267.36 57"><defs><style>.cls-1{fill:url(#linear-gradient);}.cls-2{fill:#db8916;}.cls-3{fill:url(#linear-gradient-2);}.cls-4{fill:url(#linear-gradient-3);}.cls-5{fill:url(#linear-gradient-4);}.cls-6{fill:url(#linear-gradient-5);}.cls-7{fill:#40608f;}.cls-8{fill:#5f666f;}</style><linearGradient id="linear-gradient" x1="293.07" y1="-175.95" x2="346.48" y2="-175.95" gradientTransform="translate(-95.54 177.72) rotate(4.71)" gradientUnits="userSpaceOnUse"><stop offset="0" stop-color="#fff"/><stop offset="0.08" stop-color="#eef5e1"/><stop offset="0.53" stop-color="#8ebb37"/><stop offset="0.97" stop-color="#638a37"/></linearGradient><linearGradient id="linear-gradient-2" x1="166.19" y1="251.84" x2="110.28" y2="270.55" gradientTransform="translate(55.6 -228.14) rotate(-5.8)" gradientUnits="userSpaceOnUse"><stop offset="0.01" stop-color="#8dc3e7"/><stop offset="0.14" stop-color="#7db7e1"/><stop offset="0.4" stop-color="#5399d2"/><stop offset="0.75" stop-color="#0f68ba"/><stop offset="0.82" stop-color="#005db4"/></linearGradient><linearGradient id="linear-gradient-3" x1="164.88" y1="246.17" x2="110.53" y2="264.36" xlink:href="#linear-gradient-2"/><linearGradient id="linear-gradient-4" x1="164.65" y1="242.06" x2="110.29" y2="260.25" gradientTransform="translate(79.76 -244.22) rotate(-0.03)" xlink:href="#linear-gradient-2"/><linearGradient id="linear-gradient-5" x1="165.01" y1="241.63" x2="110.63" y2="259.83" xlink:href="#linear-gradient-2"/></defs><title>glbrc-h-logo</title><path class="cls-1" d="M266.45,3.57c-.74.12-15.06,2.33-24,15.08-4,5.7-5.17,13.57-3.75,23.25.27,1.92.84,4.15,1.52,6.86,11.82-3.48,17.32-18.47,14-28.89,6.11,10.65.75,23-5,27.85C236.95,58,219.17,55,209.71,41.86c.18.27.36.54.55.81,9,12.84,25,16.5,38,9.58h0c4.15-2.44,17.57-10.48,14.6-33.33C261.5,8.2,266.09,4.08,266.45,3.57Z"/><path class="cls-2" d="M210.73,20.05c1.69.77,3.86,5,5.47,9.24a.23.23,0,0,0,.09.09.16.16,0,0,0,.12,0c.07,0,.11,0,.09-.1a.1.1,0,0,0,0-.12c-1.65-4.31-2.79-8.86-2.07-10.52s4.91-3.82,9.21-5.47c0,0,.07,0,.1-.08s0-.1,0-.12a.18.18,0,0,0-.08-.1.16.16,0,0,0-.12,0c-4.22,1.61-8.84,2.83-10.53,2.08s-3.85-5-5.47-9.23a.23.23,0,0,0-.08-.09.28.28,0,0,0-.12,0,.16.16,0,0,0-.09.21c1.63,4.31,2.8,8.87,2.07,10.52s-4.92,3.82-9.23,5.47A.18.18,0,0,0,200,22a.15.15,0,0,0,.09.08.14.14,0,0,0,.12,0C204.42,20.52,209,19.31,210.73,20.05Z"/><path class="cls-3" d="M245.71,6.44a1.47,1.47,0,1,1-2.93.3,1.48,1.48,0,0,1,1.32-1.61A1.46,1.46,0,0,1,245.71,6.44Z"/><path class="cls-4" d="M234.66,3.89a1.94,1.94,0,1,1,2.13,1.74A1.94,1.94,0,0,1,234.66,3.89Z"/><circle class="cls-5" cx="227.21" cy="3.57" r="2.46" transform="translate(0.79 22.86) rotate(-5.77)"/><path class="cls-6" d="M213.93,8.2a3,3,0,1,1,3.27,2.67A3,3,0,0,1,213.93,8.2Z"/><path class="cls-7" d="M7.19,39.13c-3.43,0-5.84-2-5.84-5.64a5.84,5.84,0,0,1,6.23-6,11,11,0,0,1,3.35.5l-.24,1.49a9,9,0,0,0-3.17-.63,4.21,4.21,0,0,0-4.42,4.5,4,4,0,0,0,4.33,4.4,7.53,7.53,0,0,0,2.08-.31V33.18h1.66v5.27A11.6,11.6,0,0,1,7.19,39.13Z"/><path class="cls-7" d="M20.56,39l-4-5.05H16.5V39H14.84V27.6c.68,0,1.77,0,3.11,0,2.6,0,4,1,4,2.93s-1.55,3.17-3.65,3.28c.31.31.66.74,1,1.2l3.3,4ZM17.72,28.83a8.88,8.88,0,0,0-1.22.07v3.83c.35,0,.83,0,1.29,0,1.51,0,2.47-.81,2.47-2.08S19.28,28.83,17.72,28.83Z"/><path class="cls-7" d="M25.4,39V27.6h6.19v1.29H27.06v3.59h4.33v1.27H27.06v3.89h4.53V39Z"/><path class="cls-7" d="M42.71,39l-1-2.54H36.44l-1,2.54H33.79L38.27,27.6h1.86L44.55,39Zm-2.93-7.7c-.26-.68-.5-1.4-.68-1.95h0a15.65,15.65,0,0,1-.66,1.95l-1.53,3.91h4.4Z"/><path class="cls-7" d="M49.48,29V39H47.82V29H44.43V27.6h8.49V29Z"/><path class="cls-7" d="M61,39V27.6h1.66v10h4.22V39Z"/><path class="cls-7" d="M77.52,39l-1-2.54H71.24l-1,2.54H68.6L73.08,27.6h1.86L79.36,39Zm-2.93-7.7c-.26-.68-.5-1.4-.68-1.95h0a15.64,15.64,0,0,1-.66,1.95L71.7,35.19h4.4Z"/><path class="cls-7" d="M88.47,39l-4.92-5.62V39H81.89V27.6h1.66V33l4.88-5.36H90.5l-5.12,5.49L90.72,39Z"/><path class="cls-7" d="M93.27,39V27.6h6.19v1.29H94.94v3.59h4.33v1.27H94.94v3.89h4.53V39Z"/><path class="cls-7" d="M104.65,39.15a12,12,0,0,1-2.54-.28l.07-1.6a7.39,7.39,0,0,0,2.69.48c1.27,0,2.65-.55,2.65-2,0-2.47-5.64-1.31-5.64-4.94,0-2,1.64-3.35,4.42-3.35a13.67,13.67,0,0,1,2.32.22l-.09,1.47a10,10,0,0,0-2.32-.33c-1.77,0-2.6.72-2.6,1.79,0,2.45,5.69,1.29,5.69,5C109.29,37.79,107.19,39.15,104.65,39.15Z"/><path class="cls-7" d="M121.36,39c-.72,0-1.88,0-3.08,0V27.6c.87,0,2.1,0,3.61,0,2.73,0,3.83,1.12,3.83,2.73a2.83,2.83,0,0,1-2.06,2.65v0a2.57,2.57,0,0,1,2.3,2.6C126,36.9,125.17,39,121.36,39Zm.18-10.21c-.55,0-1.12,0-1.6,0V32.5c.44,0,.87,0,1,0,1.88,0,3-.66,3-2C124,29.53,123.44,28.81,121.54,28.81ZM121,33.68c-.22,0-.77,0-1.07,0v4a8,8,0,0,0,1.51.11c1.92,0,2.78-.9,2.78-2.14C124.23,34.12,122.85,33.68,121,33.68Z"/><path class="cls-7" d="M129.29,39V27.6H131V39Z"/><path class="cls-7" d="M139.31,39.15c-3.67,0-5.31-2.43-5.31-5.75a5.57,5.57,0,0,1,5.66-6c3.35,0,5.36,2.06,5.36,5.77S142.5,39.15,139.31,39.15Zm.2-10.3c-2,0-3.74,1.53-3.74,4.37,0,2.43.94,4.48,3.65,4.48,2.16,0,3.83-1.49,3.83-4.33S141.82,28.85,139.5,28.85Z"/><path class="cls-7" d="M148.1,39V27.6h6.19v1.29h-4.53v3.59h4.33v1.27h-4.33v3.89h4.53V39Z"/><path class="cls-7" d="M165,39l-4.66-7.11a19.07,19.07,0,0,1-1.31-2.3h0c0,.77.09,1.64.09,3l0,6.43h-1.62V27.6h2.16l4.59,7a26.91,26.91,0,0,1,1.38,2.32h0c0-.79-.09-2.12-.09-4l0-5.34h1.64V39Z"/><path class="cls-7" d="M171.08,39V27.6h6.19v1.29h-4.53v3.59h4.33v1.27h-4.33v3.89h4.53V39Z"/><path class="cls-7" d="M186.22,39l-4-5.05h-.07V39h-1.66V27.6c.68,0,1.77,0,3.11,0,2.6,0,4,1,4,2.93s-1.55,3.17-3.65,3.28c.31.31.66.74,1,1.2l3.3,4Zm-2.84-10.15a8.88,8.88,0,0,0-1.22.07v3.83c.35,0,.83,0,1.29,0,1.51,0,2.47-.81,2.47-2.08S184.93,28.83,183.38,28.83Z"/><path class="cls-7" d="M195.8,39.13c-3.43,0-5.84-2-5.84-5.64a5.84,5.84,0,0,1,6.23-6,11,11,0,0,1,3.35.5l-.24,1.49a9,9,0,0,0-3.17-.63,4.21,4.21,0,0,0-4.42,4.5,4,4,0,0,0,4.33,4.4,7.53,7.53,0,0,0,2.08-.31V33.18h1.66v5.27A11.6,11.6,0,0,1,195.8,39.13Z"/><path class="cls-7" d="M207.52,35v4h-1.66V35l-3.94-7.39h1.84l2,3.8a22.56,22.56,0,0,1,1,2.08h0c.33-.77.7-1.53,1.07-2.23l2-3.65h1.73Z"/><path class="cls-8" d="M121.3,47.76l-1.68-2.24h0v2.24h-.91V42.54c.34,0,.93,0,1.56,0,1.21,0,1.92.48,1.92,1.41a1.53,1.53,0,0,1-1.57,1.5c.13.14.28.34.45.55l1.42,1.8Zm-1.19-4.55a3.75,3.75,0,0,0-.52,0v1.64l.55,0c.63,0,1-.35,1-.89S120.76,43.21,120.1,43.21Z"/><path class="cls-8" d="M125,47.76V42.54h3v.71h-2v1.48h1.94v.69h-1.94V47h2v.73Z"/><path class="cls-8" d="M131.7,47.85a5.32,5.32,0,0,1-1.12-.13l0-.85a3,3,0,0,0,1.19.21c.55,0,1.1-.23,1.1-.83,0-1-2.46-.53-2.46-2.21,0-1,.76-1.58,2.09-1.58a5.79,5.79,0,0,1,1,.09l0,.79a3.84,3.84,0,0,0-1-.15c-.74,0-1.07.29-1.07.74,0,1,2.47.55,2.47,2.21C133.89,47.2,133,47.85,131.7,47.85Z"/><path class="cls-8" d="M136.64,47.76V42.54h3v.71h-2v1.48h1.94v.69h-1.94V47h2v.73Z"/><path class="cls-8" d="M146,47.76l-.41-1.09H143.3l-.41,1.09H142l2-5.22h1l2,5.22Zm-1.27-3.4c-.11-.29-.21-.61-.29-.86h0a6.92,6.92,0,0,1-.27.85L143.54,46h1.85Z"/><path class="cls-8" d="M152.18,47.76l-1.68-2.24h0v2.24h-.91V42.54c.34,0,.93,0,1.56,0,1.21,0,1.92.48,1.92,1.41a1.53,1.53,0,0,1-1.57,1.5c.13.14.28.34.45.55l1.42,1.8ZM151,43.21a3.75,3.75,0,0,0-.52,0v1.64l.55,0c.63,0,1-.35,1-.89S151.65,43.21,151,43.21Z"/><path class="cls-8" d="M158,47.83a2.32,2.32,0,0,1-2.55-2.57,2.58,2.58,0,0,1,2.77-2.79,4.57,4.57,0,0,1,1.16.15l-.09.81a4,4,0,0,0-1.16-.19,1.7,1.7,0,0,0-1.71,1.93A1.64,1.64,0,0,0,158.22,47a2.87,2.87,0,0,0,1.16-.25l.08.8A4.07,4.07,0,0,1,158,47.83Z"/><path class="cls-8" d="M165.65,47.76v-2.3H163v2.3h-.91V42.54H163v2.14h2.65V42.54h.91v5.22Z"/><path class="cls-8" d="M175.75,47.83a2.32,2.32,0,0,1-2.55-2.57A2.58,2.58,0,0,1,176,42.47a4.57,4.57,0,0,1,1.16.15l-.09.81a4,4,0,0,0-1.16-.19,1.7,1.7,0,0,0-1.71,1.93A1.64,1.64,0,0,0,175.94,47a2.87,2.87,0,0,0,1.16-.25l.08.8A4.07,4.07,0,0,1,175.75,47.83Z"/><path class="cls-8" d="M179.81,47.76V42.54h3v.71h-2v1.48h1.94v.69h-1.94V47h2v.73Z"/><path class="cls-8" d="M189,47.76l-2-3.06a8.82,8.82,0,0,1-.57-1h0c0,.33,0,.68,0,1.24v2.84h-.88V42.54h1.2l1.94,3a11.06,11.06,0,0,1,.61,1h0c0-.34,0-.9,0-1.68V42.54h.89v5.22Z"/><path class="cls-8" d="M195.18,43.3v4.46h-.91V43.3h-1.51v-.76h3.94v.76Z"/><path class="cls-8" d="M199.2,47.76V42.54h3v.71h-2v1.48H202v.69h-1.94V47h2v.73Z"/><path class="cls-8" d="M207.66,47.76,206,45.52h0v2.24H205V42.54c.34,0,.93,0,1.56,0,1.21,0,1.92.48,1.92,1.41a1.53,1.53,0,0,1-1.57,1.5c.13.14.28.34.45.55l1.42,1.8Zm-1.19-4.55a3.75,3.75,0,0,0-.52,0v1.64l.55,0c.63,0,1-.35,1-.89S207.13,43.21,206.47,43.21Z"/></svg>