<svg id="Layer_1" data-name="Layer 1" xmlns="http://www.w3.org/2000/svg" viewBox="0 0 568.8 118.8"><defs><style>.cls-1{fill:none;}.cls-2{fill:#f7941e;}.cls-3{fill:#009bda;}.cls-4{fill:#005387;}.cls-5{fill:#828282;}.cls-6{fill:#71bf44;}</style></defs><title>glbrc-horz-logo</title><rect class="cls-1" x="-27.36" y="-27" width="623.52" height="172.8"/><path class="cls-2" d="M448.7,41.55c3.63,1.64,8.25,10.74,11.69,19.76a.47.47,0,0,0,.19.18.33.33,0,0,0,.26,0c.15-.06.24,0,.19-.21a.22.22,0,0,0,0-.24c-3.52-9.21-6-19-4.42-22.49s10.49-8.17,19.71-11.71c.1,0,.15-.06.22-.16s0-.21,0-.27a.43.43,0,0,0-.18-.2.37.37,0,0,0-.25,0c-9,3.45-18.89,6.06-22.51,4.45S445.35,20,441.9,10.92a.5.5,0,0,0-.18-.2.58.58,0,0,0-.26,0,.34.34,0,0,0-.2.44c3.49,9.2,6,19,4.43,22.49s-10.52,8.18-19.75,11.69a.37.37,0,0,0-.19.46.31.31,0,0,0,.2.17.3.3,0,0,0,.26,0C435.21,42.55,445.08,40,448.7,41.55Z"/><path class="cls-3" d="M523.5,12.44a3.15,3.15,0,0,1-6.26.63,3.16,3.16,0,0,1,2.81-3.45A3.13,3.13,0,0,1,523.5,12.44Z"/><path class="cls-3" d="M499.88,7a4.15,4.15,0,1,1,4.55,3.72A4.13,4.13,0,0,1,499.88,7Z"/><path class="cls-3" d="M478.7,6.83a5.27,5.27,0,1,1,5.77,4.7A5.24,5.24,0,0,1,478.7,6.83Z"/><path class="cls-3" d="M455.54,16.21a6.37,6.37,0,1,1,7,5.7A6.37,6.37,0,0,1,455.54,16.21Z"/><path class="cls-4" d="M13.42,82.35C6.08,82.35.93,78.09.93,70.28c0-7.25,5-12.91,13.33-12.91a23.47,23.47,0,0,1,7.16,1.08l-.52,3.18a19.06,19.06,0,0,0-6.78-1.36c-5,0-9.44,3.18-9.44,9.63,0,6,3.74,9.4,9.26,9.4a15.89,15.89,0,0,0,4.44-.65v-9h3.55V80.89A24.71,24.71,0,0,1,13.42,82.35Z"/><path class="cls-4" d="M42,82,33.47,71.21h-.14V82H29.77V57.7c1.45-.05,3.79-.1,6.64-.1,5.57,0,8.66,2.2,8.66,6.27,0,4.3-3.32,6.78-7.82,7a32.77,32.77,0,0,1,2.2,2.57L46.52,82ZM36,60.32a18.07,18.07,0,0,0-2.62.14v8.18c.75,0,1.77.1,2.76.1,3.22,0,5.28-1.73,5.28-4.45S39.27,60.32,36,60.32Z"/><path class="cls-4" d="M52.37,82V57.7H65.6v2.76H55.92v7.67h9.26v2.71H55.92v8.32H65.6V82Z"/><path class="cls-4" d="M89.39,82l-2.06-5.43H76L73.86,82H70.31L79.89,57.7h4L93.32,82ZM83.12,65.55c-.56-1.44-1.08-3-1.45-4.16h0a31.33,31.33,0,0,1-1.4,4.16L77,73.93h9.4Z"/><path class="cls-4" d="M103.87,60.64V82h-3.56V60.64H93.06V57.7h18.15v2.94Z"/><path class="cls-4" d="M128.51,82V57.7h3.56V79h9v3Z"/><path class="cls-4" d="M163.82,82l-2-5.43H150.4L148.3,82h-3.56l9.59-24.32h4L167.75,82Zm-6.26-16.47c-.56-1.44-1.08-3-1.45-4.16h-.05a32.85,32.85,0,0,1-1.4,4.16l-3.28,8.38h9.4Z"/><path class="cls-4" d="M187.24,82,176.72,70V82h-3.56V57.7h3.56V69.16L187.15,57.7h4.44L180.65,69.44,192.06,82Z"/><path class="cls-4" d="M197.52,82V57.7h13.23v2.76h-9.68v7.67h9.26v2.71h-9.26v8.32h9.68V82Z"/><path class="cls-4" d="M221.85,82.39a25.43,25.43,0,0,1-5.43-.61l.14-3.41a15.82,15.82,0,0,0,5.76,1c2.71,0,5.66-1.17,5.66-4.35,0-5.29-12.07-2.81-12.07-10.57,0-4.35,3.51-7.16,9.45-7.16a29.22,29.22,0,0,1,4.95.47l-.18,3.14a21.2,21.2,0,0,0-5-.71c-3.79,0-5.57,1.55-5.57,3.84,0,5.24,12.16,2.76,12.16,10.62C231.76,79.49,227.27,82.39,221.85,82.39Z"/><path class="cls-4" d="M257.58,82.11c-1.54,0-4,0-6.59-.09V57.7c1.87,0,4.49-.1,7.71-.1,5.85,0,8.19,2.39,8.19,5.85,0,2.57-1.64,4.63-4.4,5.66v0c3.32.65,4.91,2.9,4.91,5.56C267.4,77.57,265.72,82.11,257.58,82.11ZM258,60.27c-1.16,0-2.38,0-3.41,0v7.85c.94,0,1.87,0,2.2,0,4,0,6.45-1.4,6.45-4.3C263.19,61.81,262,60.27,258,60.27ZM256.83,70.7c-.47,0-1.63,0-2.29,0v8.46a17,17,0,0,0,3.23.24c4.11,0,5.94-1.92,5.94-4.59C263.71,71.63,260.76,70.7,256.83,70.7Z"/><path class="cls-4" d="M274.53,82V57.7h3.56V82Z"/><path class="cls-4" d="M296,82.39c-7.86,0-11.37-5.19-11.37-12.3,0-8.09,5.57-12.77,12.12-12.77,7.15,0,11.46,4.4,11.46,12.35C308.17,77.81,302.79,82.39,296,82.39Zm.42-22c-4.26,0-8,3.28-8,9.36,0,5.19,2,9.58,7.81,9.58,4.63,0,8.19-3.18,8.19-9.26C304.38,63.73,301.34,60.36,296.38,60.36Z"/><path class="cls-4" d="M314.77,82V57.7H328v2.76h-9.68v7.67h9.25v2.71h-9.25v8.32H328V82Z"/><path class="cls-4" d="M350.93,82l-10-15.2a40.8,40.8,0,0,1-2.81-4.91h0c.09,1.63.18,3.51.18,6.36L338.35,82h-3.46V57.7h4.63l9.82,15a56.38,56.38,0,0,1,3,5h0c-.09-1.69-.18-4.54-.18-8.56l0-11.41h3.51V82Z"/><path class="cls-4" d="M363.91,82V57.7h13.24v2.76h-9.68v7.67h9.26v2.71h-9.26v8.32h9.68V82Z"/><path class="cls-4" d="M396.29,82l-8.56-10.81h-.14V82H384V57.7c1.45-.05,3.79-.1,6.64-.1,5.57,0,8.66,2.2,8.66,6.27,0,4.3-3.32,6.78-7.81,7,.65.65,1.4,1.59,2.19,2.57L400.78,82Zm-6.08-21.7a18.07,18.07,0,0,0-2.62.14v8.18c.75,0,1.77.1,2.76.1,3.22,0,5.28-1.73,5.28-4.45S393.53,60.32,390.21,60.32Z"/><path class="cls-4" d="M416.77,82.35c-7.35,0-12.49-4.26-12.49-12.07,0-7.25,5-12.91,13.33-12.91a23.41,23.41,0,0,1,7.15,1.08l-.51,3.18a19.1,19.1,0,0,0-6.78-1.36c-5,0-9.45,3.18-9.45,9.63,0,6,3.74,9.4,9.26,9.4a15.89,15.89,0,0,0,4.44-.65v-9h3.56V80.89A24.71,24.71,0,0,1,416.77,82.35Z"/><path class="cls-4" d="M441.83,73.46V82h-3.55V73.51L429.86,57.7h3.93l4.26,8.14a47.2,47.2,0,0,1,2.05,4.44h0c.7-1.64,1.5-3.27,2.29-4.77l4.26-7.81h3.69Z"/><path class="cls-5" d="M257.44,100.8,253.86,96h-.09v4.78h-2V89.64c.73,0,2-.06,3.32-.06,2.6,0,4.1,1,4.1,3s-1.41,3-3.34,3.2c.27.3.6.73,1,1.18l3,3.84Zm-2.55-9.72a8.56,8.56,0,0,0-1.12.06v3.5c.34,0,.77,0,1.18,0,1.35,0,2.23-.75,2.23-1.91S256.3,91.08,254.89,91.08Z"/><path class="cls-5" d="M265.44,100.8V89.64h6.31v1.53h-4.36v3.15h4.15V95.8h-4.15v3.44h4.36v1.56Z"/><path class="cls-5" d="M279.69,101a11.38,11.38,0,0,1-2.4-.28l.08-1.83a6.33,6.33,0,0,0,2.56.46c1.18,0,2.36-.5,2.36-1.79,0-2.21-5.26-1.13-5.26-4.72,0-2,1.63-3.37,4.47-3.37a12.38,12.38,0,0,1,2.19.19l-.09,1.7a8.31,8.31,0,0,0-2.21-.32c-1.59,0-2.3.62-2.3,1.58,0,2.17,5.28,1.19,5.28,4.73C284.37,99.6,282.38,101,279.69,101Z"/><path class="cls-5" d="M290.25,100.8V89.64h6.31v1.53H292.2v3.15h4.14V95.8H292.2v3.44h4.36v1.56Z"/><path class="cls-5" d="M310.33,100.8l-.88-2.34h-5l-.88,2.34h-2L306,89.64h2.23l4.3,11.16Zm-2.73-7.27c-.23-.63-.45-1.31-.62-1.85h0a16.55,16.55,0,0,1-.58,1.83L305,97H309Z"/><path class="cls-5" d="M323.49,100.8,319.91,96h-.09v4.78h-1.95V89.64c.73,0,2-.06,3.33-.06,2.59,0,4.1,1,4.1,3s-1.42,3-3.35,3.2c.28.3.6.73,1,1.18l3,3.84Zm-2.55-9.72a8.77,8.77,0,0,0-1.12.06v3.5c.35,0,.78,0,1.18,0,1.36,0,2.24-.75,2.24-1.91S322.36,91.08,320.94,91.08Z"/><path class="cls-5" d="M336,101c-3.58,0-5.45-2.08-5.45-5.49,0-3.2,1.8-6,5.92-6a9.94,9.94,0,0,1,2.49.32l-.19,1.74a8.43,8.43,0,0,0-2.49-.41c-2.43,0-3.65,1.79-3.65,4.13,0,2.57,1.35,4,3.78,4a6.19,6.19,0,0,0,2.49-.54l.17,1.72A8.74,8.74,0,0,1,336,101Z"/><path class="cls-5" d="M352.3,100.8V95.89h-5.67v4.91h-1.95V89.64h1.95v4.57h5.67V89.64h1.95V100.8Z"/><path class="cls-5" d="M373.9,101c-3.59,0-5.46-2.08-5.46-5.49,0-3.2,1.81-6,5.93-6a10,10,0,0,1,2.49.32l-.19,1.74a8.48,8.48,0,0,0-2.49-.41c-2.43,0-3.65,1.79-3.65,4.13,0,2.57,1.35,4,3.77,4a6.15,6.15,0,0,0,2.49-.54l.18,1.72A8.78,8.78,0,0,1,373.9,101Z"/><path class="cls-5" d="M382.58,100.8V89.64h6.31v1.53h-4.35v3.15h4.14V95.8h-4.14v3.44h4.35v1.56Z"/><path class="cls-5" d="M402.33,100.8l-4.21-6.54a19.28,19.28,0,0,1-1.22-2.19h0c.05.71.09,1.46.09,2.66v6.07h-1.89V89.64h2.58l4.14,6.44a25,25,0,0,1,1.31,2.23h0c-.06-.73-.08-1.93-.08-3.58l0-5.09h1.91V100.8Z"/><path class="cls-5" d="M415.45,91.27v9.53H413.5V91.27h-3.22V89.64h8.41v1.63Z"/><path class="cls-5" d="M424,100.8V89.64h6.31v1.53H426v3.15h4.14V95.8H426v3.44h4.35v1.56Z"/><path class="cls-5" d="M442.14,100.8,438.56,96h-.09v4.78h-2V89.64c.73,0,2-.06,3.33-.06,2.6,0,4.1,1,4.1,3s-1.42,3-3.35,3.2c.28.3.6.73,1,1.18l3,3.84Zm-2.55-9.72a8.77,8.77,0,0,0-1.12.06v3.5c.35,0,.78,0,1.18,0,1.36,0,2.24-.75,2.24-1.91S441,91.08,439.59,91.08Z"/><path class="cls-6" d="M567.87,6.31c-1.59.27-32.22,5-51.27,32.26-8.5,12.18-11,29-8,49.71.58,4.1,1.8,8.87,3.25,14.66,25.28-7.43,37-39.5,30-61.78,13.06,22.77,1.6,49.28-10.67,59.56-22.8,19.06-54.24,16.75-75.42-2.27a4.14,4.14,0,0,0-.6-.36H455c-.06,0-.12,0-.13,0h0a.65.65,0,0,0,0,.19l.05.2a.22.22,0,0,1,.05.08l.06.17h0c19.84,20.15,49.4,24.72,74,11.65h0c8.88-5.22,37.58-22.42,31.22-71.29C557.28,16.21,567.09,7.4,567.87,6.31Z"/></svg>