<?xml version="1.0" standalone="no"?>
<!DOCTYPE svg PUBLIC "-//W3C//DTD SVG 20010904//EN"
 "http://www.w3.org/TR/2001/REC-SVG-20010904/DTD/svg10.dtd">
<svg version="1.0" xmlns="http://www.w3.org/2000/svg"
 width="258.000000pt" height="258.000000pt" viewBox="0 0 258.000000 258.000000"
 preserveAspectRatio="xMidYMid meet">
<metadata>
Created by potrace 1.11, written by Peter Selinger 2001-2013
</metadata>
<g transform="translate(0.000000,258.000000) scale(0.100000,-0.100000)"
fill="#000000" stroke="none">
<path d="M1020 2343 c-80 -29 -75 -156 7 -181 102 -31 173 94 91 163 -28 24
-64 30 -98 18z"/>
<path d="M1382 2313 c-25 -10 -43 -60 -32 -89 30 -77 130 -69 146 11 11 59
-53 103 -114 78z"/>
<path d="M2529 2246 c-2 -3 -16 -7 -30 -9 -62 -12 -224 -72 -324 -122 -268
-134 -496 -353 -600 -578 -72 -155 -96 -298 -90 -527 2 -91 7 -181 10 -200 3
-19 10 -60 15 -90 23 -134 46 -215 63 -218 15 -3 111 39 162 71 196 122 341
351 391 614 18 100 21 252 5 332 -6 30 -9 56 -7 58 5 6 43 -93 62 -162 25 -91
27 -273 4 -376 -69 -317 -247 -534 -540 -660 -132 -56 -250 -80 -390 -80 -113
1 -157 7 -268 36 -150 40 -262 97 -394 202 -75 60 -92 53 -25 -9 149 -140 380
-254 582 -287 81 -14 245 -17 325 -7 372 48 699 281 854 608 42 88 78 187 90
253 4 17 9 41 11 55 19 93 25 318 11 440 -31 271 -3 459 89 596 41 60 42 64
21 64 -13 0 -25 -2 -27 -4z"/>
<path d="M592 2181 c-96 -61 -51 -211 64 -211 39 0 51 5 80 34 29 29 34 41 34
80 0 36 -6 52 -28 77 -37 41 -102 50 -150 20z"/>
<path d="M1700 2192 c-41 -12 -51 -61 -20 -92 25 -25 55 -25 80 0 39 39 -5
109 -60 92z"/>
<path d="M280 2167 c0 -2 11 -35 24 -73 54 -152 77 -284 57 -332 -7 -16 -33
-45 -60 -65 -47 -36 -265 -147 -288 -147 -7 0 -13 -4 -13 -10 0 -13 -7 -14 96
20 117 41 206 59 271 56 45 -1 58 -7 87 -35 33 -32 121 -192 159 -288 9 -24
21 -43 26 -43 6 0 3 17 -6 38 -41 98 -83 285 -76 344 2 19 16 45 33 63 47 49
188 127 314 175 16 6 26 13 23 16 -3 3 -48 -8 -100 -25 -99 -33 -112 -37 -194
-51 -84 -14 -120 -7 -163 35 -38 37 -136 215 -160 288 -6 20 -16 37 -21 37 -5
0 -9 -1 -9 -3z"/>
</g>
</svg>
