<?xml version="1.0" encoding="UTF-8"?>
<!-- Generator: Adobe Illustrator 21.0.2, SVG Export Plug-In . SVG Version: 6.00 Build 0)  -->
<svg version="1.1" id="Layer_1" xmlns="http://www.w3.org/2000/svg" xmlns:xlink="http://www.w3.org/1999/xlink" x="0px" y="0px" viewBox="0 0 415.2 100.5" style="enable-background:new 0 0 415.2 100.5;" xml:space="preserve">
<style type="text/css">
	.st0{fill:#cfcfcf;}
</style>
<g>
	<g>
		<path class="st0" d="M80.7,8.1c0,0-5.1,10.9-7.7,16.3c-12.6-5.8-29.2-6.7-43.2,1.6C20.5,31.7,13,41.8,12.3,52.6    C12,59.9,15.1,67.8,14.1,75c-0.3,3.9-1.1,7.7-3,11.1c-2.3,3.9-5.1,7.2-9.7,7.5c1-1.3,8.2-4.8,5.4-21.1c-1.1-6.4-10-22.4-1.4-42.4    C13.2,11.8,47-9.9,80.7,8.1z"/>
		<path class="st0" d="M41.9,40.1c4.4-1.6,9.3-1.6,13.9-0.6c8.8,1.5,15.3,6.8,18.5,14.7c3.4,8.2,5.8,14.9,11.5,21.9    c0.2,0.2-9-1.3-9-1.6c2.2-16.3-13.2-17-17.4-10.9c3.2,3.5,8.7,5.3,13,4.6c-0.9,16.2,3.6,30.9,3.4,30.9    c-3.7-0.5-20.5-10.4-25.4-14.7c-7.2,1.3-12.9,4-21.3,5.1c-0.3,0,1.5-6.2,1.3-9.3c0-8.5-6.5-16.5-1.9-27    C31.3,47.1,35.5,42.5,41.9,40.1z"/>
		<g>
			<path class="st0" d="M48,35.2c0.5,0,1.2,0.1,1.2,0.1c0.1-0.6,0.6-4.6,4-7.5c3.8-3.3,8.9-3,8.8-3c-5-1.5-10.2-1.6-13.7-1.3     L48,35.2z"/>
			<path class="st0" d="M16.1,49.9c-0.8,4.9-0.8,9.4-0.4,11.8c0,0,0.7-4.1,3.1-6.4c2.1-2,4.7-2.4,5.6-2.4c0,0,0.5-1.6,0.4-1.6     L16.1,49.9z"/>
			<path class="st0" d="M25.8,49c0.3-0.6,0.6-1.2,0.9-2l-8.9-3.5c-0.6,1.1-1,2.8-1.2,3.7L25.8,49z"/>
			<path class="st0" d="M28,45.6c0,0,1.4-1.8,1.5-1.8l-8.2-6.1c-0.8,1.1-1.5,2.3-2.1,3.5L28,45.6z"/>
			<path class="st0" d="M31,42.3c0,0,1.8-1.6,1.8-1.6l-7.1-8c-1.6,1.4-2.1,2-3.1,3.2L31,42.3z"/>
			<path class="st0" d="M34.7,39.5c0,0.1,2-1.1,2.1-1.2l-5.3-9.6c-2,1-3.3,2-3.9,2.4L34.7,39.5z"/>
			<path class="st0" d="M38.6,37.4c2.5-0.9,2.5-0.9,2.5-0.8l-3-10.7c-1.7,0.5-3.9,1.4-4.4,1.8L38.6,37.4z"/>
			<path class="st0" d="M43,35.9c0.1,0,2.3-0.5,2.3-0.5l0.3-11.6c-0.1,0.1-2.7,0.5-4.9,1.1L43,35.9z"/>
		</g>
	</g>
	<g>
		<g>
			<path class="st0" d="M112.6,70.2V82c0,2,0.6,4.8,4.1,4.8c3.2,0,4.3-2.2,4.3-5l-0.1-11.6c0-0.7-0.3-1-0.7-1.3h3.1     c-0.4,0.2-0.7,0.6-0.7,1.3l-0.1,11.6c0,4.8-2.7,6.7-6.4,6.7c-3.1,0-7.1-1.5-7.1-6.5V70.2c0-0.7-0.4-1-0.9-1.3h5.1     C113,69.1,112.6,69.5,112.6,70.2z"/>
			<path class="st0" d="M157.9,70.2c0-0.7-0.3-1-0.7-1.3h3c-0.4,0.2-0.7,0.6-0.7,1.3v18.7c0,0-12.9-16-12.9-16.2v14.2     c0,0.6,0.3,1,0.8,1.3h-3c0.4-0.3,0.7-0.7,0.7-1.3V71.7c0-1.1,0-1.1-0.5-1.8c-0.3-0.3-0.6-0.7-1.2-1.1h4.6l9.9,12.4V70.2z"/>
			<path class="st0" d="M186.4,68.9c-0.5,0.2-0.7,0.6-0.7,1.3v16.7c0,0.6,0.2,1,0.7,1.3h-4.9c0.4-0.3,0.7-0.7,0.7-1.3V70.2     c0-0.7-0.3-1-0.7-1.3H186.4z"/>
			<path class="st0" d="M219.1,70.3c0.2-0.7,0.1-1.1-0.6-1.4h3.3c-0.7,0.5-0.8,0.7-1,1.4c-0.5,1.1-6.9,18.5-6.9,18.5     s-7-17.4-7.5-18.5c-0.3-0.6-0.6-1-1.4-1.4h5.9c-0.7,0.3-0.8,0.9-0.6,1.6c0.1,0.3,4.5,11.9,4.5,11.9S219.1,70.5,219.1,70.3z"/>
			<path class="st0" d="M251.7,71.4c-0.5-0.7-1.1-1-2.1-1c-0.8-0.1-4.6-0.1-4.6-0.1v6.5h4c0.4,0,0.8-0.5,1-0.8v3     c-0.1-0.4-0.6-0.8-1-0.8h-4v8.3c0.5,0.1,2.2,0.2,3.5,0.1c2.3-0.1,3.4,0,4.4-1.8l-0.6,3.3h-11.5c0.5-0.3,0.8-0.6,0.8-1.3V70.2     c0-0.7-0.4-1-0.8-1.3h10.8L251.7,71.4z"/>
			<path class="st0" d="M281,78.3c1.8,0.2,2.6,1.5,3,2.1c0,0,3.2,5.4,4.2,6.5c0.5,0.7,1.7,1.1,1.7,1.1l-3.5,0.1     c-1,0-1.9-0.7-2.4-1.3c-1.2-1.8-2.4-3.8-3.4-5.4c-0.7-1.1-1.3-2.3-2.5-2.3c-0.3,0-1.2,0.1-1.2,0.1v7.7c0,0.6,0.3,1,0.8,1.3H273     c0.4-0.3,0.7-0.7,0.7-1.3V70.2c0-0.7-0.3-1-0.7-1.3h5.8c5.5,0,6.8,2.9,6.8,4.8C285.6,76.7,283,78.2,281,78.3z M277.1,70.3v7.4     c0,0,0.8,0.1,1.2,0.1c1.8,0,3.8-1.1,3.8-3.9c0-1.3-0.8-3.6-3.4-3.6C277.8,70.2,277.1,70.3,277.1,70.3z"/>
			<path class="st0" d="M319.4,82.4c0,3.5-2.9,5.9-6.2,5.9c-2.4,0-4.2-0.9-5.1-1.4l-0.1-4.8c0.5,2,2.1,4.7,4.9,4.7     c2.7,0,3.5-2,3.5-3.4c0-2.7-2.3-3.1-4.8-4.5c-2.5-1.4-3.5-3-3.5-5.1c0-3.8,3.4-5.4,5.8-5.4c0.9,0,2.7,0.2,4,1l0.1,4.2     c-0.4-1.5-1.9-3.8-4.5-3.8c-2,0-2.8,1.5-2.8,2.7c0,1.7,1.2,2.4,3.7,3.6C316.8,77.6,319.4,78.5,319.4,82.4z"/>
			<path class="st0" d="M345.2,68.9c-0.5,0.2-0.7,0.6-0.7,1.3v16.7c0,0.6,0.2,1,0.7,1.3h-4.9c0.4-0.3,0.7-0.7,0.7-1.3V70.2     c0-0.7-0.3-1-0.7-1.3H345.2z"/>
			<path class="st0" d="M374.3,70.3v16.5c0,0.6,0.3,1,0.7,1.3h-4.8c0.4-0.3,0.7-0.7,0.7-1.3V70.3c-2,0-4.3,0.2-4.3,0.2     c-0.6,0-1.1,0.7-1.3,1.1v-2.7h14.7v2.7c-0.2-0.5-0.6-1.1-1.3-1.1C378.7,70.5,376.2,70.3,374.3,70.3z"/>
			<path class="st0" d="M413.8,68.9c-0.8,0.3-1.4,1.1-1.8,1.7l-4.3,8.6v7.6c0,0.6,0.5,1,0.9,1.3h-5.4c0.4-0.3,0.9-0.6,0.9-1.3v-7.5     l-5.3-9.1c-0.4-0.7-0.7-1-1.4-1.4h6.1c-0.7,0.3-1.1,0.4-0.4,1.8l3.8,7l3.5-7.3c0.4-0.6,0.2-1.2-0.6-1.4H413.8z"/>
		</g>
		<g>
			<path class="st0" d="M129.1,24.6h6.3c-0.6,0.3-1,0.9-1,1.8v23.2c0,0.9,0.4,1.4,1,1.8h-6.7c0.6-0.4,1-0.9,1-1.8V29.7     c0-0.5,0.1-0.9,0.1-0.9l-0.3,0.9l-8.9,22.1l-9-21.4l-0.3-1.1c0,0,0,0.7,0,1.1v19.1c0,0.9,0.4,1.4,1,1.8h-4.1c0.6-0.4,1-0.9,1-1.8     V26.3c0-0.7-0.6-1.5-1.2-1.8h6.6l7.4,18L129.1,24.6z"/>
			<path class="st0" d="M148.2,24.6c-0.6,0.3-1,0.9-1,1.8v23.2c0,0.9,0.3,1.4,1,1.8h-6.7c0.6-0.4,1-0.9,1-1.8V26.3     c0-0.9-0.4-1.5-1-1.8H148.2z"/>
			<path class="st0" d="M176.8,32.2c-2.3-5.5-6.6-6-8.4-6c-6.4,0-10,4.9-10,11.2c0,5.4,2.6,12,10.2,12c1.8,0,6-0.6,8.4-6     c0.1-0.2-0.3,5.7-0.3,5.7c-3.1,1.8-6.4,2.5-9.5,2.5c-7.3,0-13.9-5.3-13.9-13.7c0-6.9,4.8-13.9,14.3-13.9c3.1,0,5.8,0.6,8.8,2     C176.4,26.2,176.9,32.4,176.8,32.2z"/>
			<path class="st0" d="M198.6,24.6h6.7c-0.6,0.3-1,0.9-1,1.8v23.2c0,0.9,0.4,1.4,1,1.8h-6.7c0.6-0.4,1-0.9,1-1.8v-12H188v12     c0,0.9,0.3,1.4,1,1.8h-6.7c0.6-0.4,1-0.9,1-1.8V26.3c0-0.9-0.4-1.5-1-1.8h6.7c-0.6,0.3-1,0.9-1,1.8v9.2h11.6v-9.2     C199.6,25.4,199.2,24.9,198.6,24.6z"/>
			<path class="st0" d="M218.1,24.6c-0.6,0.3-1,0.9-1,1.8v23.2c0,0.9,0.3,1.4,1,1.8h-6.7c0.6-0.4,1-0.9,1-1.8V26.3     c0-0.9-0.4-1.5-1-1.8H218.1z"/>
			<path class="st0" d="M246.4,26.2l0.3,6.2c-1.9-5.3-6.6-6.2-8.4-6.2c-6.3,0-10,4.9-10,11.2c0,5.4,2.5,12,10.2,12     c0.8,0,3-0.1,4.7-1.3v-6.8c0-0.9-0.4-1.5-1-1.8h6.7c-0.6,0.4-1,0.9-1,1.8v5.8c0,0.8,0.4,1.5,0.6,1.6c-3.1,1.8-8.4,2.9-11.4,2.9     c-7.4,0-14-5.3-14-13.7c0-6.9,4.9-13.9,14.4-13.9C240.7,24.1,243.5,24.8,246.4,26.2z"/>
			<path class="st0" d="M273.6,49.3c0.4,0.8,0.6,1.3,1.9,1.9h-8c1-0.5,1.2-1.1,0.9-1.9c-0.1-0.4-1.1-2.8-2.1-5.5h-9.1     c-1.1,2.7-2,5-2.1,5.4c-0.3,0.9-0.1,1.5,0.9,2h-5.1c1-0.7,1.4-1.2,1.8-1.9c0.7-1.5,10.5-25.6,10.5-25.6S272.9,47.8,273.6,49.3z      M265.4,41.8c-1.8-4.4-3.8-9.6-3.8-9.6s-2.5,6.7-3.7,9.6H265.4z"/>
			<path class="st0" d="M296.5,26.3c0-0.9-0.4-1.5-1-1.8h4.1c-0.6,0.3-1,0.9-1,1.8v26c0,0-17.9-22.2-17.9-22.5v19.7     c0,0.9,0.4,1.4,1,1.8h-4.1c0.6-0.4,1-0.9,1-1.8v-21c0-1.5,0-1.6-0.7-2.5c-0.4-0.5-0.9-1-1.7-1.5h6.4l13.7,17.3V26.3z"/>
			<path class="st0" d="M330.2,43.4c0,4.9-4.1,8.2-8.7,8.2c-3.4,0-5.8-1.2-7.2-1.9l-0.2-6.6c0.7,2.8,2.9,6.5,6.8,6.5     c3.7,0,4.8-2.8,4.8-4.7c0-3.8-3.2-4.3-6.6-6.2c-3.4-2-4.9-4.1-4.9-7.1c0-5.3,4.7-7.5,8.1-7.5c1.3,0,3.7,0.3,5.6,1.5l0.2,5.8     c-0.5-2.1-2.6-5.2-6.2-5.2c-2.8,0-3.9,2.1-3.9,3.8c0,2.4,1.6,3.3,5.1,5C326.6,36.6,330.2,37.9,330.2,43.4z"/>
			<path class="st0" d="M345.1,26.5v23c0,0.9,0.4,1.4,1,1.8h-6.7c0.6-0.4,1-0.9,1-1.8v-23c-2.8,0-6,0.3-6,0.3     c-0.9,0-1.5,0.9-1.9,1.6v-3.8H353v3.8c-0.3-0.7-0.9-1.5-1.8-1.6C351.2,26.8,347.8,26.5,345.1,26.5z"/>
			<path class="st0" d="M372.4,49.3c0.4,0.8,0.6,1.3,1.9,1.9h-8c1-0.5,1.2-1.1,0.9-1.9c-0.1-0.4-1.1-2.8-2.1-5.5h-9.1     c-1.1,2.7-2,5-2.1,5.4c-0.3,0.9-0.1,1.5,0.9,2h-5.1c1-0.7,1.4-1.2,1.8-1.9c0.7-1.5,10.5-25.6,10.5-25.6S371.7,47.8,372.4,49.3z      M364.2,41.8c-1.7-4.4-3.8-9.6-3.8-9.6s-2.5,6.7-3.7,9.6H364.2z"/>
			<path class="st0" d="M383.9,26.5v23c0,0.9,0.4,1.4,1,1.8h-6.7c0.6-0.4,1-0.9,1-1.8v-23c-2.8,0-6,0.3-6,0.3     c-0.9,0-1.5,0.9-1.9,1.6v-3.8h20.4v3.8c-0.3-0.7-0.9-1.5-1.7-1.6C390.1,26.8,386.7,26.5,383.9,26.5z"/>
			<path class="st0" d="M410.9,28c-0.7-1-1.5-1.3-2.9-1.4c-1.1-0.1-6.3-0.1-6.3-0.1v9h5.6c0.5,0,1.2-0.6,1.3-1.1v4.2     c-0.2-0.5-0.8-1.1-1.3-1.1h-5.6V49c0.7,0.1,3,0.3,4.8,0.2c3.2-0.1,4.7,0,6.1-2.5l-0.8,4.5h-16c0.6-0.4,1.1-0.8,1.1-1.8V26.3     c0-0.9-0.5-1.5-1.1-1.8h15L410.9,28z"/>
		</g>
		<rect x="107.9" y="58.2" class="st0" width="305.4" height="2.1"/>
	</g>
</g>
</svg>