<?xml version="1.0" encoding="utf-8"?>
<!-- Generator: Adobe Illustrator 21.0.2, SVG Export Plug-In . SVG Version: 6.00 Build 0)  -->
<svg version="1.1" id="Layer_1" xmlns="http://www.w3.org/2000/svg" xmlns:xlink="http://www.w3.org/1999/xlink" x="0px" y="0px"
	 viewBox="0 0 598 201.4" style="enable-background:new 0 0 598 201.4;" xml:space="preserve">
<style type="text/css">
	.st0{fill:#5C6670;}
</style>
<title>uw-web-logo-flush</title>
<path class="st0" d="M127.3,72.3c-0.4-4.3-1.1-8.5-2-12.7c-0.8-3.9-1.9-7.7-3.2-11.4c-1.4-3.9-3.1-7.7-5.1-11.4
	c-1.9-3.4-4.2-6.6-6.8-9.5c-7-7.7-15.7-11.9-25.3-12.1h-0.2c-1.6-3.4-5.9-6.2-9.6-6.7c0,0-2-8.6-11-8.6c-9,0-11,8.6-11,8.6
	c-3.7,0.5-8,3.3-9.6,6.7h-0.3c-9.6,0.1-18.3,4.4-25.3,12.1c-2.6,2.9-4.9,6.1-6.8,9.5C9,40.5,7.3,44.3,6,48.2
	c-1.3,3.7-2.4,7.5-3.2,11.4c-0.9,4.2-1.6,8.4-2,12.7c-5.3,52.2,18.2,116.3,60.4,126.1c0.6,1,2.1,3,2.9,3s2.3-2,2.9-3
	C109.2,188.6,132.6,124.4,127.3,72.3z M64,2c4.1-0.2,7.9,2.4,9.1,6.4c-3.7,0.3-7.1,2.4-8.9,5.7c0,0.1-0.1,0.2-0.2,0.2
	c-0.1,0-0.1-0.1-0.2-0.2C62,10.8,58.7,8.7,55,8.4C56.2,4.5,59.9,1.8,64,2z M58.8,11.4c0.3,0.2,0.6,0.3,0.9,0.5h0
	c1.8,1.1,3.1,2.8,3.7,4.9c0,0.4,0.3,0.8,0.6,0.9c0.4-0.2,0.6-0.6,0.6-1c0.5-2,1.9-3.8,3.7-4.9c4.4-2.9,10.4-1.7,13.4,2.7
	c0.2,0.3,0.4,0.6,0.5,0.9c-1.3,0.3-2.6,0.6-3.9,1c-2,0.6-3.9,1.6-5.5,3c-4,3.7-6.5,8.8-7,14.2c-1.5,16.8,17.8,14.2,18.8,14.1
	c2.5,0,4.4-3.9,4.4-9.2c0-5.2-1.9-9.2-4.4-9.2c-1.5,0-4.1,1.2-4.3,5.9c-0.2,3.3,1.4,7.6,3.5,7.9c1.1,0.1,2.1-1.8,2.4-3.7
	c0.3-1.7,0.1-4.3-1.4-4.7c-0.5-0.1-0.9,0.2-1.1,0.6c0,0,0,0,0,0c-0.1,0.4,0.9,1.2,0.9,3.1c-0.1,2.9-3,1.4-2.6-3.1
	c0.4-4.1,2.4-3.8,2.5-3.8c1.2,0,2.9,2.4,2.9,7c0,4-1.9,8.4-5.7,6.1c-3.1-2.3-4.4-7.6-3.5-11.6c0.4-1.9,2-7,7.2-7
	c7.5,0,14.5,4,20.1,11.3c-0.6,2-4.5,9.5-16.8,16.6c-0.3,0.1-0.7,0.4-0.7,0.3c-3.6-1.6-7.5-2.4-11.4-2.2c-3.6,0.3-7.2,0.8-10.7,1.7
	c-0.7,0.2-1.4,0.3-2.1,0.3c-0.7,0-1.4-0.2-2.1-0.3c-3.5-0.9-7.1-1.4-10.7-1.7c-3.9-0.1-7.8,0.6-11.4,2.2c0,0-0.4-0.2-0.7-0.3
	C26.8,46.9,23,39.4,22.3,37.4c5.6-7.3,12.6-11.3,20.1-11.3c5.2,0,6.8,5.1,7.2,7c0.9,4.1-0.4,9.4-3.5,11.6c-3.7,2.3-5.7-2.1-5.7-6.1
	c0-4.5,1.8-7,2.9-7c0.1,0,2.2-0.2,2.5,3.8c0.4,4.6-2.5,6-2.6,3.1c0-1.9,1-2.7,0.9-3.1c-0.1-0.5-0.6-0.8-1.1-0.7c0,0,0,0,0,0
	c-1.5,0.4-1.6,3-1.4,4.7c0.3,1.9,1.3,3.8,2.4,3.7c2.1-0.3,3.7-4.6,3.5-7.9c-0.2-4.7-2.8-5.9-4.3-5.9c-2.5,0-4.4,3.9-4.4,9.2
	c0,5.2,1.9,9.2,4.4,9.2c1,0.1,20.3,2.7,18.8-14.1c-0.5-5.4-3-10.4-7-14.1c-1.6-1.4-3.5-2.4-5.5-3c-1.3-0.4-2.5-0.7-3.8-1
	C48.3,10.8,54.1,8.9,58.8,11.4z M64.1,182.3c-1.4,0-5.4,0.6-6,3.7c0,0.1,0,0.2,0,0.3c-2.9-1.1-5.7-2.4-8.3-4.1c1.8-1.5,6-5.2,8.1-10
	c1.9,1.4,4,2.5,6.1,3.4c2.2-0.9,4.3-2,6.2-3.4c2,4.8,6.2,8.5,8.2,10c-2.6,1.7-5.4,3-8.3,4.1c0-0.1,0-0.2,0-0.3
	C69.5,183,65.5,182.3,64.1,182.3z M23.3,81.4c-4.7-0.4-9.2-1.7-13.4-3.8c1-16.9,5.3-30.1,11.5-38.9c1.1,2.9,5.9,10,17.1,16.6
	C29,60.9,24.8,72.7,23.3,81.4z M39.7,57.2c3.1-1.7,6.5-2.7,10.1-2.8c6.3-0.4,11,2,14.2,2.1h0.1c3.2-0.1,7.8-2.5,14.2-2.1
	c3.6,0.1,7,1,10.1,2.8c12.9,8.2,14.7,27.2,15,33.3c0.6,15-2.2,30-8.2,43.8c-8.9,19.6-19.7,33.5-30.3,38.2L64,173l-0.8-0.4
	c-10.6-4.7-21.4-18.6-30.3-38.2c-6-13.8-8.8-28.8-8.2-43.8C25,84.4,26.8,65.5,39.7,57.2z M23.1,82.7c-0.4,2.5-0.6,5.1-0.7,7.6
	c-0.5,11.9,1.1,23.8,4.7,35.2c2.4,7.5,5.6,14.7,9.5,21.5c-4,3.6-9.9,5-11.9,5.4C14.1,131.1,8.7,103.7,9.9,78.9
	C14,81,18.5,82.3,23.1,82.7z M37.3,148L37.3,148c7.1,12.2,14.1,19.5,19.5,23.4c-1.9,4.9-6.5,8.8-8.2,10c-9.2-6.2-17.1-16.1-23.2-28
	C27.8,153,33.3,151.5,37.3,148z M71.3,171.4L71.3,171.4c5.4-3.8,12.4-11.1,19.5-23.4c4,3.5,9.5,5,11.9,5.4
	c-6.2,11.9-14,21.8-23.2,28C77.8,180.2,73.2,176.3,71.3,171.4z M91.4,146.9c3.9-6.8,7.1-14,9.5-21.5c1.8-5.5,3-11.2,3.8-16.9
	c0.8-6.1,1.1-12.2,0.9-18.3c-0.1-2.6-0.4-5.1-0.7-7.6c4.6-0.4,9.1-1.7,13.3-3.7c1.2,24.7-4.2,52.2-14.9,73.4
	C101.3,152,95.3,150.5,91.4,146.9z M104.7,81.4L104.7,81.4c-1.4-8.8-5.8-20.3-15.2-26.2c11.1-6.5,16-13.7,17-16.5
	c6.2,8.8,10.5,22.1,11.5,38.9C113.9,79.7,109.4,81,104.7,81.4z M57.1,194.7c-4.8-1.6-9.4-3.9-13.5-6.8c-2.6-1.8-5.1-3.8-7.5-6
	c-1.9-1.8-3.7-3.7-5.4-5.7c-1.2-1.3-2.3-2.7-3.4-4.2c-5.1-6.9-9.5-14.4-12.9-22.4c-3.3-7.6-5.9-15.5-7.9-23.5
	c-2-8.2-3.4-16.6-4.1-25c-0.8-8.3-0.8-16.7-0.2-25c0.4-4.5,0.9-8.9,1.7-13.3c0.8-4.4,1.9-8.7,3.3-12.9c1.3-3.9,2.9-7.6,4.8-11.2
	c2-3.7,4.4-7.2,7.3-10.2c2.7-2.8,5.7-5.3,9.1-7.2c1.4-0.8,2.9-1.4,4.5-2c0.8-0.3,1.6-0.5,2.4-0.8c0.8-0.2,1.6-0.4,2.4-0.6
	c2-0.3,3.9-0.5,5.9-0.5c3.2,0,6.3,0.8,9,2.4c4.5,3.2,7.4,8.4,7.7,14c0.9,10.4-9.7,12.1-11.8,12c-0.3,0-0.5-0.3,0.5-1.4
	c2.4-3.4,3.2-7.7,2.4-11.8c-1-4.8-4.4-8.5-9.3-8.5c-7.3,0-13.9,3.7-18.7,9s-8,11.6-10.3,18.2c-2.9,8.5-4.6,17.3-5.1,26.3
	C7.6,85.8,7.8,94,8.6,102.1c0.9,8.3,2.4,16.4,4.5,24.4c2.1,7.8,4.8,15.4,8.1,22.7c3.3,7.4,7.6,14.4,12.6,20.8
	c5.1,6.5,11.5,11.9,18.8,15.9c1.6,0.8,3.3,1.6,5.1,2.2c-0.1,2.5,0.5,4.9,1.5,7.2C58.6,195.2,57.8,195,57.1,194.7z M64.8,198.3
	L64.8,198.3c-0.2,0.2-0.4,0.4-0.7,0.5c-0.3-0.1-0.5-0.2-0.7-0.5c-1.8-2.3-4.5-6.7-3.5-11.9c0.3-1.5,2.8-2.1,4.2-2.2
	c1.4,0,3.9,0.7,4.2,2.2C69.2,191.6,66.5,196,64.8,198.3z M125.6,101.1L125.6,101.1c-0.7,8.4-2.1,16.8-4.1,25
	c-2,8.1-4.6,15.9-7.9,23.5c-3.4,7.9-7.7,15.4-12.9,22.3c-1.1,1.4-2.2,2.8-3.4,4.2c-1.7,2-3.5,3.9-5.4,5.7c-2.3,2.2-4.8,4.2-7.5,6
	c-4.2,2.9-8.7,5.2-13.5,6.8c-0.7,0.3-1.4,0.5-2.2,0.6c1.1-2.2,1.6-4.7,1.5-7.2c1.7-0.6,3.4-1.4,5.1-2.2c7.3-3.9,13.7-9.3,18.8-15.9
	c5-6.4,9.3-13.4,12.6-20.8c3.4-7.3,6.1-14.9,8.1-22.7c2.1-8,3.6-16.2,4.5-24.4c0.9-8.1,1.1-16.4,0.6-24.5
	c-0.5-8.9-2.2-17.8-5.1-26.2c-2.3-6.6-5.6-13-10.3-18.2c-4.7-5.1-11.4-9-18.7-9c-4.9,0-8.3,3.7-9.3,8.5c-0.9,4.1,0,8.4,2.4,11.8
	c1,1.1,0.9,1.4,0.5,1.4c-2.1,0-12.7-1.6-11.8-12c0.3-5.6,3.1-10.7,7.7-13.9c2.7-1.6,5.8-2.4,9-2.4c2,0,4,0.1,5.9,0.5
	c0.8,0.2,1.6,0.4,2.4,0.6c0.8,0.2,1.6,0.5,2.4,0.8c1.5,0.6,3,1.2,4.5,2c3.4,1.9,6.5,4.3,9.2,7.2c2.8,3.1,5.3,6.5,7.2,10.2
	c1.9,3.6,3.6,7.3,4.9,11.2c1.4,4.2,2.5,8.5,3.3,12.9c0.8,4.4,1.3,8.8,1.7,13.3C126.4,84.5,126.4,92.8,125.6,101.1z"/>
<path class="st0" d="M83.2,75.7V80l0.8-0.1c0.1,0,0.3,0,0.4,0c0.7,0,1.4,0.2,1.9,0.6c0.6,0.7,0.7,1.7,0.5,2.6
	c0,0-8.6,37.3-10.3,44.5c-1.9-9-12.1-58.1-12.1-58.1v-0.2h-2v0.2l-8.9,57.3L43.2,83.1c0-0.2,0-0.4,0-0.6c-0.1-0.8,0.2-1.6,0.7-2.2
	c0.5-0.4,1.1-0.6,1.7-0.5l0.8,0.1v-4.2H32v4.1l0.6,0.1c1,0.2,1.9,0.9,2.2,1.9l17.6,75.4v0.2H55v-0.2c0.1-0.5,6.9-45.4,8.2-53.8
	c1.6,8.4,10.4,53.3,10.4,53.8v0.2H76l16.7-75.6c0.2-1.1,1.2-1.8,2.3-1.7h0.2l0.8,0.1v-4.4H83.2z"/>
<path class="st0" d="M207.3,75.7c7,2.5,4,10,2.4,15.3l-10.1,34l-12.4-40.2c-1.3-4.1-1.9-7.1-1.3-9.4h-12.6v0.2
	c4.9,2.6,3.1,8.6,1.4,14.3l-10.5,35.4l-13.3-43.2c-0.5-1.8-1.4-4.7-1.1-6.7h-13.1v0.2c4.5,3.2,5.8,9.2,7.4,14.3l10.6,34.3
	c3,9.6,3.8,8.9,11.9,15.1l14-46.9l9.9,32c3,9.6,3.6,9.1,11.8,15l18.9-63.9h-13.8V75.7z"/>
<path class="st0" d="M224.1,75.7c4.6,1.8,3.9,8.6,3.9,12.8v35c0,4.2,0.5,11.1-3.9,12.7v0.3h17v-0.3c-4.5-1.8-3.9-8.6-3.9-12.7v-35
	c0-4.2-0.5-11.1,3.9-12.8v-0.2h-17V75.7z"/>
<path class="st0" d="M256.9,89.1c0-6.4,6.5-8.5,11.6-8.5c5.3,0,10.3,2.1,14.1,5.8V76c-4.3-1.4-8.8-2-13.4-2
	c-10.9,0-22.5,4.5-22.5,16.2c0,19.7,30.8,17.1,30.8,31.6c0,6.5-7.7,9.7-12.8,9.7c-7.3-0.2-14.2-2.9-19.6-7.7l2.6,11.6
	c5.1,1.9,10.5,2.8,16,2.8c14,0,24-9.3,24-19.2C287.7,101.7,256.9,101.8,256.9,89.1z"/>
<path class="st0" d="M324,130.4c-13.8,0-22.8-12.2-22.8-25.8c0-13.5,8.6-22.9,21-22.9c5.9,0.1,11.7,2,16.6,5.3V76.3
	c-5.3-1.4-10.8-2.2-16.3-2.3c-18.4,0-31.5,12.7-31.5,32c0,19.9,13.1,32.2,34.2,32.2c4.7,0.1,9.3-0.8,13.5-2.8l4.6-10.8h-0.3
	C337.4,127.8,330.7,130.4,324,130.4z"/>
<path class="st0" d="M375.7,73.9c-18.8-0.5-33.6,14.3-33.6,32c0,19.1,15,32.2,32.7,32.2s33-13.8,33-32.7c0-17.4-14-31.5-31.4-31.5
	C376.2,73.9,375.9,73.9,375.7,73.9z M375.2,131.4c-14.1,0-23-13.4-23-26.4c0-14,8.9-24.4,22.8-24.4c14.1,0,22.5,13.1,22.5,26.7
	C397.5,121.1,388.9,131.4,375.2,131.4z"/>
<path class="st0" d="M453.8,75.7c4.8,2.8,4.7,6.5,4.7,11.7v35.3l-32.8-43l-1.3-1.9c-0.6-0.7-1.1-1.5-1.3-2.3v0h-13v0.2
	c4.7,2.8,4.7,6.5,4.7,11.7v37.1c0,5.2,0,8.9-4.8,11.8v0.3h15.9v-0.3c-4.8-2.9-4.7-6.6-4.7-11.8v-36l30.7,40.4
	c3.9,5.3,6.7,8.4,13.1,10.6V87.4c0-5.2,0-8.9,4.7-11.7v-0.3h-15.8V75.7z"/>
<path class="st0" d="M482.7,89.1c0-6.4,6.5-8.5,11.6-8.5c5.3,0,10.3,2.1,14.1,5.8V76c-4.3-1.4-8.8-2-13.4-2
	c-10.9,0-22.5,4.5-22.5,16.2c0,19.7,30.8,17.1,30.8,31.6c0,6.5-7.7,9.7-12.8,9.7c-7.3-0.2-14.2-2.9-19.6-7.7l2.6,11.6
	c5.1,1.9,10.5,2.8,16,2.8c14,0,24-9.3,24-19.2C513.5,101.7,482.7,101.8,482.7,89.1z"/>
<path class="st0" d="M516.9,75.7c4.6,1.8,3.9,8.6,3.9,12.8v35c0,4.2,0.5,11.1-3.9,12.7v0.3h17v-0.3c-4.5-1.8-3.9-8.6-3.9-12.7v-35
	c0-4.2-0.5-11.1,3.9-12.8v-0.2h-17V75.7z"/>
<path class="st0" d="M582.2,75.4v0.2c4.8,2.8,4.7,6.5,4.7,11.7v35.3l-32.8-43l-1.3-1.9c-0.6-0.7-1.1-1.5-1.3-2.3v0h-13.1v0.2
	c4.7,2.8,4.7,6.5,4.7,11.7v37.1c0,5.2,0,8.9-4.7,11.8v0.3h15.9v-0.3c-4.8-2.9-4.7-6.6-4.7-11.8v-36l30.7,40.4
	c3.9,5.3,6.7,8.4,13.1,10.6V87.4c0-5.2,0-8.9,4.7-11.7v-0.3H582.2z"/>
<path class="st0" d="M165.5,150.5v10.8c0,1.1-0.2,2.2-0.8,3.2c-0.5,0.9-1.3,1.7-2.3,2.1c-1.1,0.5-2.4,0.8-3.6,0.8
	c-1.8,0.1-3.5-0.5-4.8-1.6c-1.2-1.2-1.8-2.8-1.7-4.5v-10.8h2.7V161c-0.1,1.1,0.3,2.2,1,3c0.8,0.7,1.9,1.1,2.9,1c2.6,0,3.9-1.3,3.9-4
	v-10.6H165.5L165.5,150.5z"/>
<path class="st0" d="M184,167.2h-3.3l-8.2-13.3h-0.1l0.1,0.7c0.1,1.4,0.2,2.7,0.2,3.9v8.7h-2.5v-16.7h3.3l8.1,13.2h0.1
	c0-0.2,0-0.8-0.1-1.9s-0.1-2-0.1-2.6v-8.7h2.5V167.2L184,167.2z"/>
<path class="st0" d="M188.9,167.2v-16.7h2.7v16.7L188.9,167.2L188.9,167.2z"/>
<path class="st0" d="M206,150.5h2.8l-5.8,16.7h-2.9l-5.8-16.7h2.8l3.5,10.4c0.2,0.5,0.4,1.1,0.6,1.9c0.2,0.8,0.3,1.4,0.4,1.7
	c0.1-0.6,0.2-1.2,0.5-2s0.4-1.3,0.5-1.7L206,150.5z"/>
<path class="st0" d="M221,167.2h-9.4v-16.7h9.4v2.3h-6.7v4.5h6.3v2.3h-6.3v5.2h6.7V167.2L221,167.2z"/>
<path class="st0" d="M227.9,160.5v6.7h-2.7v-16.7h4.7c1.7-0.1,3.4,0.3,4.8,1.2c1.1,0.9,1.7,2.3,1.6,3.6c0,2-1.3,3.9-3.2,4.4l4.7,7.4
	h-3.1l-4-6.7H227.9L227.9,160.5z M227.9,158.2h1.9c1,0.1,1.9-0.2,2.8-0.7c0.6-0.5,0.9-1.3,0.9-2.1c0.1-0.8-0.3-1.5-0.9-2
	c-0.9-0.5-1.8-0.7-2.8-0.6h-1.8L227.9,158.2L227.9,158.2z"/>
<path class="st0" d="M250.2,162.7c0.1,1.4-0.5,2.7-1.6,3.5c-1.3,0.9-2.9,1.4-4.4,1.3c-1.6,0.1-3.2-0.2-4.6-0.9V164
	c0.8,0.4,1.6,0.6,2.4,0.8c0.8,0.2,1.6,0.3,2.4,0.3c0.8,0.1,1.7-0.2,2.4-0.6c0.5-0.4,0.8-1,0.8-1.7c0-0.6-0.3-1.2-0.7-1.6
	c-0.9-0.7-1.9-1.2-2.9-1.5c-1.2-0.4-2.3-1.1-3.2-2.1c-0.6-0.8-1-1.8-0.9-2.9c-0.1-1.3,0.5-2.5,1.5-3.3c1.2-0.9,2.6-1.3,4-1.2
	c1.6,0,3.3,0.4,4.8,1.1l-0.9,2.2c-1.3-0.6-2.6-0.9-4-0.9c-0.7-0.1-1.4,0.2-2,0.6c-0.5,0.4-0.7,0.9-0.7,1.5c0,0.4,0.1,0.8,0.3,1.1
	c0.2,0.4,0.5,0.7,0.9,0.9c0.7,0.4,1.5,0.8,2.3,1.1c1,0.4,1.9,0.8,2.7,1.4c0.5,0.4,1,0.9,1.3,1.5C250.1,161.3,250.2,162,250.2,162.7z
	"/>
<path class="st0" d="M253.9,167.2v-16.7h2.7v16.7L253.9,167.2L253.9,167.2z"/>
<path class="st0" d="M267.4,167.2h-2.7v-14.3h-4.9v-2.3h12.5v2.3h-4.9L267.4,167.2L267.4,167.2z"/>
<path class="st0" d="M280,158.1l4-7.6h3l-5.6,10.2v6.5h-2.7v-6.4l-5.5-10.3h3L280,158.1z"/>
<path class="st0" d="M311.1,158.8c0.2,2.3-0.6,4.5-2,6.3c-3.3,3-8.3,3-11.6,0c-1.4-1.8-2.2-4.1-2-6.4c-0.2-2.3,0.5-4.6,2-6.3
	c1.5-1.5,3.6-2.3,5.8-2.2c2.2-0.1,4.3,0.7,5.8,2.2C310.5,154.2,311.2,156.5,311.1,158.8z M298.3,158.8c-0.1,1.7,0.3,3.3,1.2,4.7
	c1.9,2,5.1,2.1,7.2,0.2c0.1-0.1,0.1-0.1,0.2-0.2c1.6-2.9,1.6-6.4,0-9.3c-0.9-1.1-2.3-1.7-3.7-1.6c-1.4-0.1-2.8,0.5-3.7,1.6
	C298.6,155.5,298.2,157.1,298.3,158.8L298.3,158.8z"/>
<path class="st0" d="M317.9,167.2h-2.7v-16.7h9.4v2.3h-6.7v5.2h6.3v2.3h-6.3V167.2L317.9,167.2z"/>
<path class="st0" d="M350.1,167.2h-3l-2.8-9.9c-0.1-0.4-0.3-1.1-0.5-1.9c-0.2-0.8-0.3-1.4-0.3-1.6c-0.1,0.5-0.2,1.1-0.4,1.9
	s-0.3,1.4-0.4,1.7l-2.8,9.9h-3l-2.2-8.4l-2.2-8.3h2.8l2.4,9.7c0.3,1.4,0.6,2.7,0.8,4.1c0.1-0.6,0.2-1.4,0.4-2.2s0.3-1.4,0.5-1.9
	l2.7-9.7h2.7l2.8,9.8c0.4,1.3,0.6,2.7,0.9,4.1c0.2-1.4,0.4-2.8,0.8-4.1l2.4-9.7h2.8L350.1,167.2z"/>
<path class="st0" d="M357.3,167.2v-16.7h2.7v16.7L357.3,167.2L357.3,167.2z"/>
<path class="st0" d="M374.6,162.7c0.1,1.4-0.5,2.7-1.6,3.5c-1.3,0.9-2.9,1.4-4.4,1.3c-1.6,0.1-3.2-0.2-4.6-0.9V164
	c0.8,0.4,1.6,0.6,2.4,0.8c0.8,0.2,1.6,0.3,2.4,0.3c0.8,0.1,1.7-0.2,2.4-0.6c0.5-0.4,0.8-1,0.8-1.7c0-0.6-0.3-1.2-0.7-1.6
	c-0.9-0.7-1.9-1.2-2.9-1.5c-1.2-0.4-2.4-1.2-3.2-2.1c-0.6-0.8-1-1.8-0.9-2.9c-0.1-1.3,0.5-2.5,1.5-3.3c1.2-0.9,2.6-1.3,4-1.2
	c1.6,0,3.3,0.4,4.8,1.1l-0.9,2.2c-1.3-0.6-2.6-0.9-4-0.9c-0.7-0.1-1.4,0.2-2,0.6c-0.4,0.4-0.7,0.9-0.7,1.5c0,0.4,0.1,0.8,0.3,1.1
	c0.2,0.4,0.5,0.7,0.9,0.9c0.7,0.4,1.5,0.8,2.3,1.1c1,0.4,1.9,0.8,2.7,1.4c0.5,0.4,1,0.9,1.3,1.5C374.4,161.3,374.6,162,374.6,162.7z
	"/>
<path class="st0" d="M385.4,152.6c-1.4-0.1-2.8,0.6-3.7,1.7c-1.8,2.8-1.8,6.4,0,9.2c0.9,1.1,2.3,1.7,3.8,1.6c0.7,0,1.4-0.1,2.1-0.2
	c0.7-0.1,1.4-0.3,2.1-0.5v2.4c-1.4,0.5-2.9,0.8-4.5,0.7c-2.1,0.1-4.2-0.7-5.6-2.2c-1.4-1.8-2.1-4.1-2-6.4c0-1.6,0.3-3.1,1-4.6
	c0.6-1.3,1.5-2.3,2.8-3c1.3-0.7,2.8-1,4.2-1c1.6,0,3.3,0.4,4.7,1.1l-1,2.3c-0.6-0.3-1.2-0.5-1.8-0.7
	C386.8,152.7,386.1,152.6,385.4,152.6z"/>
<path class="st0" d="M408.4,158.8c0.2,2.3-0.6,4.5-2,6.3c-3.3,3-8.3,3-11.6,0c-1.4-1.8-2.2-4.1-2-6.4c-0.2-2.3,0.6-4.6,2-6.3
	c1.5-1.5,3.6-2.3,5.8-2.2c2.2-0.1,4.3,0.7,5.8,2.2C407.9,154.2,408.6,156.5,408.4,158.8z M395.7,158.8c-0.1,1.7,0.3,3.3,1.2,4.7
	c1.9,2,5.1,2.1,7.2,0.2c0.1-0.1,0.1-0.1,0.2-0.2c1.6-2.9,1.6-6.4,0-9.3c-0.9-1.1-2.3-1.7-3.7-1.6c-1.4-0.1-2.8,0.5-3.7,1.6
	C396,155.5,395.6,157.1,395.7,158.8z"/>
<path class="st0" d="M426.4,167.2h-3.3l-8.2-13.3h-0.1l0.1,0.7c0.1,1.4,0.2,2.7,0.2,3.9v8.7h-2.5v-16.7h3.3l8.2,13.2h0.1
	c0-0.2,0-0.8-0.1-1.9s-0.1-2-0.1-2.6v-8.7h2.5L426.4,167.2L426.4,167.2z"/>
<path class="st0" d="M441,162.7c0.1,1.4-0.5,2.7-1.6,3.5c-1.3,0.9-2.9,1.4-4.4,1.3c-1.6,0.1-3.2-0.2-4.6-0.9V164
	c0.8,0.4,1.6,0.6,2.4,0.8c0.8,0.2,1.6,0.3,2.4,0.3c0.8,0.1,1.7-0.2,2.4-0.6c0.5-0.4,0.8-1,0.8-1.7c0-0.6-0.3-1.2-0.7-1.6
	c-0.9-0.7-1.9-1.2-2.9-1.5c-1.2-0.4-2.3-1.1-3.2-2.1c-0.6-0.8-1-1.8-0.9-2.9c-0.1-1.3,0.5-2.5,1.5-3.3c1.2-0.9,2.6-1.3,4-1.2
	c1.6,0,3.3,0.4,4.8,1.1l-0.9,2.2c-1.3-0.6-2.6-0.9-4-0.9c-0.7-0.1-1.4,0.2-2,0.6c-0.4,0.4-0.7,0.9-0.7,1.5c0,0.4,0.1,0.8,0.3,1.1
	c0.2,0.4,0.5,0.7,0.9,0.9c0.7,0.4,1.5,0.8,2.3,1.1c1,0.4,1.9,0.8,2.7,1.4c0.5,0.4,1,0.9,1.3,1.5C440.9,161.3,441,162,441,162.7z"/>
<path class="st0" d="M444.7,167.2v-16.7h2.7v16.7L444.7,167.2L444.7,167.2z"/>
<path class="st0" d="M466.3,167.2h-3.4l-8.2-13.3h-0.1l0.1,0.7c0.1,1.4,0.2,2.7,0.2,3.9v8.7h-2.5v-16.7h3.3l8.2,13.2h0.1
	c0-0.2,0-0.8-0.1-1.9s-0.1-2-0.1-2.6v-8.7h2.5V167.2L466.3,167.2z"/>
<path class="st0" d="M469.9,162v-2.2h9.8v2.2H469.9z"/>
<path class="st0" d="M490.6,167.2l-4.8-13.9h-0.1c0.1,2.1,0.2,4,0.2,5.8v8.1h-2.5v-16.7h3.9l4.6,13.3h0.1l4.8-13.3h3.9v16.7h-2.6
	v-8.2c0-0.8,0-1.9,0.1-3.2c0-1.3,0.1-2.1,0.1-2.4H498l-5,13.9L490.6,167.2L490.6,167.2z"/>
<path class="st0" d="M515.8,167.2l-1.7-4.6h-6.4l-1.6,4.6h-2.9l6.2-16.8h3l6.2,16.8H515.8L515.8,167.2z M513.4,160.2l-1.6-4.5
	c-0.1-0.3-0.3-0.8-0.5-1.4s-0.3-1.1-0.4-1.5c-0.2,1-0.5,2.1-0.9,3.1l-1.5,4.4L513.4,160.2L513.4,160.2z"/>
<path class="st0" d="M535,158.7c0.2,2.3-0.7,4.6-2.3,6.3c-1.5,1.5-3.7,2.2-6.6,2.2h-4.7v-16.7h5.2c2.3-0.1,4.5,0.6,6.2,2.1
	C534.3,154.2,535.1,156.4,535,158.7z M532.1,158.8c0-4-1.9-6-5.6-6h-2.4v12.1h1.9C530.1,164.9,532.1,162.8,532.1,158.8L532.1,158.8z
	"/>
<path class="st0" d="M539.1,167.2v-16.7h2.7v16.7L539.1,167.2L539.1,167.2z"/>
<path class="st0" d="M556.3,162.7c0.1,1.4-0.5,2.7-1.6,3.5c-1.3,0.9-2.9,1.4-4.4,1.3c-1.6,0.1-3.2-0.2-4.6-0.9V164
	c0.8,0.4,1.6,0.6,2.4,0.8c0.8,0.2,1.6,0.3,2.4,0.3c0.8,0.1,1.7-0.2,2.4-0.6c0.5-0.4,0.8-1,0.8-1.7c0-0.6-0.3-1.2-0.7-1.6
	c-0.9-0.7-1.9-1.2-2.9-1.6c-1.2-0.4-2.3-1.1-3.2-2.1c-0.6-0.8-1-1.8-0.9-2.9c-0.1-1.3,0.5-2.5,1.5-3.3c1.2-0.9,2.6-1.3,4-1.2
	c1.6,0,3.3,0.4,4.8,1.1l-0.9,2.2c-1.3-0.6-2.6-0.9-4-0.9c-0.7-0.1-1.4,0.2-2,0.6c-0.5,0.4-0.7,0.9-0.7,1.5c0,0.4,0.1,0.8,0.3,1.1
	c0.2,0.4,0.5,0.7,0.9,0.9c0.7,0.4,1.5,0.8,2.3,1.1c1,0.4,1.9,0.8,2.7,1.4c0.5,0.4,1,0.9,1.2,1.5C556.2,161.3,556.4,162,556.3,162.7z
	"/>
<path class="st0" d="M574.9,158.8c0.2,2.3-0.6,4.5-2,6.3c-3.3,3-8.3,3-11.6,0c-1.4-1.8-2.2-4.1-2-6.4c-0.2-2.3,0.5-4.6,2-6.3
	c1.5-1.5,3.6-2.3,5.8-2.2c2.2-0.1,4.3,0.7,5.8,2.2C574.3,154.2,575,156.5,574.9,158.8z M562.2,158.8c-0.1,1.7,0.3,3.3,1.2,4.7
	c1.9,2,5.1,2.1,7.2,0.2c0.1-0.1,0.1-0.1,0.2-0.2c1.6-2.9,1.6-6.4,0-9.3c-0.9-1.1-2.3-1.7-3.7-1.6c-1.4-0.1-2.8,0.5-3.7,1.6
	C562.5,155.5,562,157.1,562.2,158.8L562.2,158.8z"/>
<path class="st0" d="M592.9,167.2h-3.3l-8.2-13.3h-0.1l0.1,0.7c0.1,1.4,0.2,2.7,0.2,3.9v8.7H579v-16.7h3.3l8.2,13.2h0.1
	c0-0.2,0-0.8-0.1-1.9c0-1.1-0.1-2-0.1-2.6v-8.7h2.5L592.9,167.2L592.9,167.2z"/>
</svg>
